# xmcd CD database file
#
# Track frame offsets:
#	187
#	19980
#	35542
#
# Disc length: 733 seconds
#
# Revision: 0
# Processed by: cddbd v1.5.1PL0 Copyright (c) Steve Scherf et al.
# Submitted via: CDex 1.51
#
DISCID=1e02db03
DTITLE=月城雪兎(緒方恵美) - カードキャプターさくら Character Single YUKITO
DYEAR=1998
DGENRE=Anime
TTITLE0=自転車に乗って
TTITLE1=ミニドラマ「さくらの宿題〜算数〜」
TTITLE2=自転車に乗って(オリジナル・カラオケ)
EXTD=YEAR: 1998
EXTT0=
EXTT1=
EXTT2=
PLAYORDER=
